<?xml version="1.0" encoding="UTF-8"?>
<svg id="Layer_2" data-name="Layer 2" xmlns="http://www.w3.org/2000/svg" xmlns:xlink="http://www.w3.org/1999/xlink" viewBox="0 0 33.91 40">
  <defs>
    <style>
      .cls-1 {
        fill: url(#linear-gradient-2);
      }

      .cls-2 {
        fill: url(#linear-gradient);
      }
    </style>
    <linearGradient id="linear-gradient" x1="6.81" y1="15.79" x2="35.59" y2="32.41" gradientUnits="userSpaceOnUse">
      <stop offset="0" stop-color="#1eb5cf"/>
      <stop offset=".84" stop-color="#8063c0"/>
    </linearGradient>
    <linearGradient id="linear-gradient-2" x1="-18.9" y1="-3.69" x2="30.58" y2="24.88" xlink:href="#linear-gradient"/>
  </defs>
  <g id="OBJECTS">
    <g>
      <path class="cls-2" d="M33.76,12.28c.9,4.83-2.27,11.69-6.67,17.24-4.38,5.57-10.31,10.24-15.22,10.48-2.73-.03-5.98-1.3-7.82-3.46-3.27-3.86,2.9-8.17,4.09-8.77,1.96-1.33,3.55.39,5.2,1.69,2.59,2.04,5.66-.33,8.59-4.03,2.92-3.7,4.52-7.24,1.93-9.29-1.65-1.3-3.69-2.44-2.85-4.67.31-1.29,3.08-8.29,7.59-6,2.52,1.29,4.52,4.16,5.18,6.81"/>
      <path class="cls-1" d="M14.57,18.82c2.38,1.89,4.71,3.22,6.61,3.23-.39.6-.83,1.21-1.29,1.79-2.18,2.76-3.51,3.53-4.12,3.73-1.82-1.02-3.61-2.24-5.28-3.57C4.9,19.62.24,13.68,0,8.77.03,6.04,1.3,2.79,3.46.94c3.85-3.27,8.17,2.91,8.77,4.09,1.33,1.97-.39,3.55-1.7,5.2-2.04,2.58.33,5.67,4.03,8.59Z"/>
    </g>
  </g>
</svg>