<svg xmlns="http://www.w3.org/2000/svg" xmlns:xlink="http://www.w3.org/1999/xlink" width="50" zoomAndPan="magnify" viewBox="0 0 37.5 37.499999" height="50" preserveAspectRatio="xMidYMid meet" version="1.0"><defs><clipPath id="d06a4de4b9"><path d="M 0 0 L 37.007812 0 L 37.007812 37.007812 L 0 37.007812 Z M 0 0 " clip-rule="nonzero"/></clipPath></defs><g clip-path="url(#d06a4de4b9)"><path fill="#ffffff" d="M 18.507812 0 C 8.289062 -0.00390625 0.00390625 8.28125 0 18.5 C -0.00390625 28.71875 8.28125 37.003906 18.5 37.007812 C 28.71875 37.007812 37.003906 28.726562 37.007812 18.507812 L 37.007812 18.503906 C 37.007812 8.285156 28.726562 0.00390625 18.507812 0 Z M 13.878906 26.210938 L 10.796875 26.210938 L 10.796875 10.792969 L 13.878906 10.792969 Z M 26.214844 26.210938 L 16.964844 26.210938 L 16.964844 23.125 L 26.214844 23.125 Z M 26.214844 20.042969 L 16.964844 20.042969 L 16.964844 16.960938 L 26.214844 16.960938 Z M 26.214844 13.875 L 16.964844 13.875 L 16.964844 10.792969 L 26.214844 10.792969 Z M 26.214844 13.875 " fill-opacity="1" fill-rule="nonzero"/></g></svg>