<?xml version="1.0" encoding="UTF-8"?>
<svg id="Layer_2" data-name="Layer 2" xmlns="http://www.w3.org/2000/svg" xmlns:xlink="http://www.w3.org/1999/xlink" viewBox="0 0 32.52 40">
  <defs>
    <style>
      .cls-1 {
        fill: url(#linear-gradient);
      }
    </style>
    <linearGradient id="linear-gradient" x1="16.26" y1="39.72" x2="16.26" y2="-2.22" gradientUnits="userSpaceOnUse">
      <stop offset=".14" stop-color="#1eb5cf"/>
      <stop offset=".25" stop-color="#28accd"/>
      <stop offset=".44" stop-color="#4594c8"/>
      <stop offset=".69" stop-color="#736dc1"/>
      <stop offset=".75" stop-color="#8063c0"/>
    </linearGradient>
  </defs>
  <g id="OBJECTS">
    <path class="cls-1" d="M23.35,35.59s0,0,0,0c0-2.33,0-4.62,0-6.9,0-.91-.12-1.8-.45-2.66-.24-.64-.58-1.21-1.14-1.73.79-.14,1.54-.25,2.27-.41,1.11-.23,2.19-.58,3.21-1.09,1.96-.98,3.42-2.45,4.22-4.49,1.12-2.85,1.4-5.77.54-8.74-.32-1.12-.89-2.12-1.64-3-.17-.2-.2-.35-.11-.61.63-1.93.35-3.81-.34-5.67-.09-.23-.24-.24-.43-.25-.86-.02-1.67.21-2.46.5-1.17.43-2.26,1.02-3.31,1.69-.23.15-.43.2-.72.12-3.24-.85-6.51-.86-9.77-.22-1.15.23-2.08.17-3.08-.49C8.93.82,7.57.28,6.1.06c-.24-.04-.42-.06-.57-.06l-.45.16c-.11.13-.19.36-.31.73-.54,1.71-.57,3.44-.1,5.17.07.25.04.42-.13.62-1.43,1.68-2.09,3.65-2.12,5.84-.03,1.75.14,3.47.69,5.13,1.1,3.32,3.49,5.23,6.78,6.14,1.03.29,2.09.48,3.24.6-.32.35-.6.65-.8,1-.31.55-.52,1.15-.59,1.78-.03.26-.13.37-.36.46-2.7,1.1-5.09.34-6.66-2.11-.74-1.16-1.75-1.96-3.13-2.23-.43-.08-.86-.1-1.27.06-.36.13-.43.36-.2.68.17.22.38.4.62.55,1.36.83,2.21,2.07,2.81,3.49.92,2.18,2.61,3.2,4.89,3.39,1.03.08,2.05-.02,3.08-.26,0,1.42-.03,2.99-.03,4.39,0,0,.07,4.41,5.88,4.41s5.97-4.41,5.97-4.41Z"/>
  </g>
</svg>