<svg xmlns="http://www.w3.org/2000/svg" xmlns:xlink="http://www.w3.org/1999/xlink" width="50" zoomAndPan="magnify" viewBox="0 0 37.5 37.499999" height="50" preserveAspectRatio="xMidYMid meet" version="1.0"><defs><clipPath id="225d888261"><path d="M 0 0 L 37.007812 0 L 37.007812 37.007812 L 0 37.007812 Z M 0 0 " clip-rule="nonzero"/></clipPath></defs><g clip-path="url(#225d888261)"><path fill="#ffffff" d="M 18.507812 0 C 18.050781 0 17.601562 0.0664062 17.164062 0.199219 C 16.726562 0.332031 16.320312 0.527344 15.9375 0.78125 C 15.558594 1.035156 15.222656 1.339844 14.933594 1.691406 C 14.644531 2.046875 14.410156 2.433594 14.234375 2.855469 C 14.058594 3.277344 13.949219 3.71875 13.90625 4.171875 C 13.859375 4.628906 13.882812 5.078125 13.972656 5.527344 C 14.0625 5.976562 14.214844 6.402344 14.429688 6.804688 C 14.644531 7.210938 14.914062 7.574219 15.238281 7.894531 L 25.824219 18.480469 L 18.96875 25.484375 L 21.65625 28.316406 C 22.074219 28.640625 22.433594 29.019531 22.738281 29.453125 L 22.757812 29.472656 L 22.753906 29.472656 C 23.378906 30.378906 23.695312 31.382812 23.695312 32.484375 C 23.695312 32.890625 23.648438 33.292969 23.554688 33.6875 L 35.503906 21.898438 C 35.550781 21.851562 35.609375 21.820312 35.65625 21.773438 C 35.691406 21.738281 35.714844 21.695312 35.75 21.65625 C 35.953125 21.441406 36.132812 21.207031 36.292969 20.957031 C 36.449219 20.703125 36.582031 20.441406 36.691406 20.164062 C 36.796875 19.886719 36.878906 19.601562 36.929688 19.308594 C 36.984375 19.015625 37.007812 18.722656 37.003906 18.425781 C 37 18.128906 36.964844 17.835938 36.90625 17.542969 C 36.84375 17.253906 36.753906 16.972656 36.640625 16.699219 C 36.523438 16.425781 36.382812 16.164062 36.21875 15.917969 C 36.054688 15.671875 35.867188 15.441406 35.65625 15.234375 L 21.777344 1.355469 C 20.875 0.449219 19.785156 0 18.507812 0 Z M 13.308594 3.289062 L 1.355469 15.125 C 1.140625 15.339844 0.949219 15.574219 0.78125 15.824219 C 0.613281 16.078125 0.472656 16.34375 0.355469 16.625 C 0.238281 16.90625 0.152344 17.191406 0.09375 17.492188 C 0.0351562 17.789062 0.00390625 18.089844 0.00390625 18.390625 C 0.00390625 18.695312 0.0351562 18.996094 0.09375 19.292969 C 0.152344 19.589844 0.238281 19.878906 0.355469 20.160156 C 0.472656 20.441406 0.613281 20.707031 0.78125 20.960938 C 0.949219 21.210938 1.140625 21.445312 1.355469 21.660156 L 13.230469 33.609375 C 13.148438 33.238281 13.109375 32.863281 13.109375 32.484375 C 13.109375 32.136719 13.144531 31.792969 13.214844 31.453125 C 13.28125 31.113281 13.382812 30.78125 13.515625 30.460938 C 13.648438 30.140625 13.808594 29.835938 14.003906 29.546875 C 14.195312 29.257812 14.414062 28.992188 14.660156 28.746094 C 14.90625 28.5 15.175781 28.28125 15.460938 28.085938 C 15.75 27.894531 16.054688 27.730469 16.378906 27.597656 C 16.699219 27.464844 17.027344 27.363281 17.371094 27.296875 C 17.710938 27.230469 18.054688 27.195312 18.402344 27.195312 C 18.832031 27.195312 19.257812 27.246094 19.675781 27.351562 L 11.160156 18.390625 L 17.898438 11.648438 L 14.691406 8.441406 C 13.300781 7.046875 12.851562 5.074219 13.308594 3.289062 Z M 18.402344 27.964844 C 18.105469 27.964844 17.8125 27.996094 17.519531 28.054688 C 17.230469 28.109375 16.945312 28.195312 16.671875 28.3125 C 16.398438 28.425781 16.136719 28.5625 15.890625 28.726562 C 15.644531 28.894531 15.417969 29.082031 15.207031 29.289062 C 14.996094 29.5 14.808594 29.726562 14.644531 29.976562 C 14.480469 30.222656 14.339844 30.480469 14.226562 30.757812 C 14.113281 31.03125 14.027344 31.3125 13.96875 31.605469 C 13.910156 31.894531 13.882812 32.1875 13.882812 32.484375 C 13.882812 32.78125 13.910156 33.078125 13.96875 33.367188 C 14.027344 33.660156 14.113281 33.941406 14.226562 34.214844 C 14.339844 34.488281 14.480469 34.75 14.644531 34.996094 C 14.808594 35.242188 14.996094 35.472656 15.207031 35.683594 C 15.414062 35.890625 15.644531 36.078125 15.890625 36.242188 C 16.136719 36.410156 16.398438 36.546875 16.671875 36.660156 C 16.945312 36.777344 17.230469 36.863281 17.519531 36.917969 C 17.8125 36.976562 18.105469 37.007812 18.402344 37.007812 C 18.699219 37.007812 18.992188 36.976562 19.285156 36.917969 C 19.574219 36.863281 19.855469 36.777344 20.132812 36.664062 C 20.40625 36.550781 20.667969 36.410156 20.914062 36.246094 C 21.160156 36.078125 21.386719 35.890625 21.597656 35.683594 C 21.808594 35.472656 21.996094 35.246094 22.160156 34.996094 C 22.324219 34.75 22.464844 34.488281 22.578125 34.214844 C 22.691406 33.941406 22.777344 33.660156 22.835938 33.367188 C 22.894531 33.078125 22.921875 32.78125 22.921875 32.484375 C 22.921875 32.1875 22.894531 31.894531 22.835938 31.605469 C 22.777344 31.3125 22.691406 31.03125 22.578125 30.757812 C 22.464844 30.480469 22.324219 30.222656 22.160156 29.976562 C 21.996094 29.726562 21.808594 29.5 21.597656 29.289062 C 21.386719 29.078125 21.160156 28.894531 20.914062 28.726562 C 20.664062 28.5625 20.40625 28.421875 20.132812 28.308594 C 19.855469 28.195312 19.574219 28.109375 19.285156 28.054688 C 18.992188 27.996094 18.699219 27.964844 18.402344 27.964844 Z M 18.402344 27.964844 " fill-opacity="1" fill-rule="nonzero"/></g></svg>