<svg xmlns="http://www.w3.org/2000/svg" xmlns:xlink="http://www.w3.org/1999/xlink" width="50" zoomAndPan="magnify" viewBox="0 0 37.5 37.499999" height="50" preserveAspectRatio="xMidYMid meet" version="1.0"><defs><clipPath id="6388061e49"><path d="M 0.84375 0 L 36.371094 0 L 36.371094 37.007812 L 0.84375 37.007812 Z M 0.84375 0 " clip-rule="nonzero"/></clipPath></defs><g clip-path="url(#6388061e49)"><path fill="#ffffff" d="M 28.140625 12.179688 L 28.140625 7.773438 C 29.300781 7.230469 30.109375 6.066406 30.109375 4.71875 L 30.109375 4.613281 C 30.109375 2.75 28.578125 1.226562 26.703125 1.226562 L 26.601562 1.226562 C 24.726562 1.226562 23.191406 2.75 23.191406 4.613281 L 23.191406 4.71875 C 23.191406 6.066406 24.003906 7.230469 25.160156 7.773438 L 25.160156 12.179688 C 23.4375 12.445312 21.863281 13.152344 20.566406 14.191406 L 8.398438 4.78125 C 8.476562 4.472656 8.53125 4.15625 8.535156 3.828125 C 8.535156 1.714844 6.816406 0.00390625 4.695312 0 C 2.570312 -0.00390625 0.847656 1.707031 0.84375 3.816406 C 0.84375 5.925781 2.5625 7.640625 4.683594 7.644531 C 5.375 7.644531 6.015625 7.449219 6.578125 7.132812 L 18.546875 16.386719 C 17.527344 17.914062 16.933594 19.746094 16.933594 21.714844 C 16.933594 23.683594 17.589844 25.683594 18.695312 27.253906 L 15.054688 30.871094 C 14.769531 30.785156 14.46875 30.726562 14.152344 30.726562 C 12.410156 30.726562 10.996094 32.132812 10.996094 33.867188 C 10.996094 35.601562 12.410156 37.007812 14.152344 37.007812 C 15.898438 37.007812 17.3125 35.601562 17.3125 33.867188 C 17.3125 33.550781 17.25 33.253906 17.164062 32.96875 L 20.765625 29.390625 C 22.398438 30.628906 24.4375 31.375 26.652344 31.375 C 32.019531 31.375 36.367188 27.050781 36.367188 21.714844 C 36.367188 16.886719 32.800781 12.894531 28.140625 12.179688 Z M 26.648438 26.667969 C 23.898438 26.667969 21.667969 24.449219 21.667969 21.714844 C 21.667969 18.980469 23.898438 16.761719 26.648438 16.761719 C 29.402344 16.761719 31.632812 18.980469 31.632812 21.714844 C 31.632812 24.449219 29.402344 26.667969 26.648438 26.667969 Z M 26.648438 26.667969 " fill-opacity="1" fill-rule="nonzero"/></g></svg>