<svg xmlns="http://www.w3.org/2000/svg" xmlns:xlink="http://www.w3.org/1999/xlink" width="50" zoomAndPan="magnify" viewBox="0 0 37.5 37.499999" height="50" preserveAspectRatio="xMidYMid meet" version="1.0"><defs><clipPath id="abd0e8e3f3"><path d="M 0 7 L 37.007812 7 L 37.007812 31 L 0 31 Z M 0 7 " clip-rule="nonzero"/></clipPath><clipPath id="1cd4617569"><path d="M 0 0 L 37.007812 0 L 37.007812 8 L 0 8 Z M 0 0 " clip-rule="nonzero"/></clipPath><clipPath id="1bec229309"><path d="M 27 17 L 37.007812 17 L 37.007812 31 L 27 31 Z M 27 17 " clip-rule="nonzero"/></clipPath><clipPath id="f7538f75d7"><path d="M 12 19 L 30 19 L 30 37.007812 L 12 37.007812 Z M 12 19 " clip-rule="nonzero"/></clipPath></defs><g clip-path="url(#abd0e8e3f3)"><path fill="#ffffff" d="M 0 7.710938 L 37.007812 7.710938 L 37.007812 30.839844 L 0 30.839844 Z M 0 7.710938 " fill-opacity="0.2" fill-rule="evenodd"/></g><g clip-path="url(#1cd4617569)"><path fill="#ffffff" d="M 37.007812 7.710938 L 0 7.710938 L 0 3.078125 C 0 1.378906 1.382812 0 3.089844 0 L 33.914062 0 C 35.621094 0 37.007812 1.375 37.007812 3.078125 Z M 37.007812 7.710938 " fill-opacity="1" fill-rule="evenodd"/></g><path fill="#8063c0" d="M 9.25 5.398438 C 8.398438 5.398438 7.710938 4.707031 7.710938 3.855469 C 7.710938 3.003906 8.398438 2.3125 9.25 2.3125 C 10.101562 2.3125 10.792969 3.003906 10.792969 3.855469 C 10.792969 4.707031 10.101562 5.398438 9.25 5.398438 Z M 3.855469 5.398438 C 3.003906 5.398438 2.3125 4.707031 2.3125 3.855469 C 2.3125 3.003906 3.003906 2.3125 3.855469 2.3125 C 4.707031 2.3125 5.398438 3.003906 5.398438 3.855469 C 5.398438 4.707031 4.707031 5.398438 3.855469 5.398438 Z M 3.855469 5.398438 " fill-opacity="1" fill-rule="evenodd"/><path fill="#ffffff" d="M 6.167969 30.839844 L 0 30.839844 C 0 26.101562 1.804688 21.367188 5.417969 17.753906 C 12.644531 10.527344 24.359375 10.527344 31.585938 17.753906 L 27.226562 22.117188 C 24.992188 19.882812 21.910156 18.503906 18.503906 18.503906 C 11.691406 18.503906 6.167969 24.027344 6.167969 30.839844 Z M 6.167969 30.839844 " fill-opacity="0.8" fill-rule="evenodd"/><g clip-path="url(#1bec229309)"><path fill="#ffffff" d="M 30.839844 30.839844 L 37.007812 30.839844 C 37.007812 26.101562 35.199219 21.367188 31.585938 17.753906 L 27.226562 22.117188 C 29.457031 24.347656 30.839844 27.433594 30.839844 30.839844 Z M 30.839844 30.839844 " fill-opacity="0.9" fill-rule="evenodd"/></g><g clip-path="url(#f7538f75d7)"><path fill="#ffffff" d="M 14.140625 35.199219 C 11.734375 32.792969 11.734375 28.886719 14.140625 26.476562 C 16.550781 24.070312 29.953125 19.390625 29.953125 19.390625 C 29.953125 19.390625 25.273438 32.792969 22.863281 35.199219 C 20.457031 37.609375 16.550781 37.609375 14.140625 35.199219 Z M 14.140625 35.199219 " fill-opacity="1" fill-rule="evenodd"/></g><path fill="#8063c0" d="M 18.503906 33.921875 C 16.800781 33.921875 15.417969 32.542969 15.417969 30.839844 C 15.417969 29.136719 16.800781 27.753906 18.503906 27.753906 C 20.207031 27.753906 21.585938 29.136719 21.585938 30.839844 C 21.585938 32.542969 20.207031 33.921875 18.503906 33.921875 Z M 18.503906 33.921875 " fill-opacity="1" fill-rule="evenodd"/></svg>