<svg xmlns="http://www.w3.org/2000/svg" xmlns:xlink="http://www.w3.org/1999/xlink" width="50" zoomAndPan="magnify" viewBox="0 0 37.5 37.499999" height="50" preserveAspectRatio="xMidYMid meet" version="1.0"><defs><clipPath id="eaeff6a91f"><path d="M 22 0 L 37.007812 0 L 37.007812 34 L 22 34 Z M 22 0 " clip-rule="nonzero"/></clipPath></defs><path fill="#ffffff" d="M 7.875 31.023438 L 2.320312 36.578125 C 1.890625 37.007812 1.199219 37.007812 0.769531 36.578125 L 0.425781 36.234375 C 0 35.808594 0 35.117188 0.425781 34.6875 L 5.980469 29.132812 C 6.410156 28.703125 7.105469 28.703125 7.53125 29.132812 L 7.875 29.472656 C 7.976562 29.578125 8.058594 29.695312 8.113281 29.828125 C 8.167969 29.964844 8.195312 30.101562 8.195312 30.25 C 8.195312 30.394531 8.167969 30.535156 8.113281 30.667969 C 8.058594 30.800781 7.976562 30.921875 7.875 31.023438 Z M 7.875 31.023438 " fill-opacity="1" fill-rule="nonzero"/><g clip-path="url(#eaeff6a91f)"><path fill="#ffffff" d="M 22.785156 33.34375 L 29.894531 33.34375 C 30.363281 33.34375 30.824219 33.300781 31.285156 33.210938 C 31.742188 33.117188 32.1875 32.984375 32.617188 32.804688 C 33.046875 32.625 33.457031 32.40625 33.847656 32.148438 C 34.234375 31.886719 34.59375 31.59375 34.925781 31.261719 C 35.253906 30.933594 35.550781 30.574219 35.808594 30.183594 C 36.066406 29.796875 36.285156 29.386719 36.464844 28.957031 C 36.644531 28.523438 36.777344 28.078125 36.871094 27.621094 C 36.960938 27.164062 37.003906 26.703125 37.003906 26.234375 L 37.003906 7.109375 C 37.003906 6.644531 36.960938 6.179688 36.871094 5.722656 C 36.777344 5.265625 36.644531 4.820312 36.464844 4.390625 C 36.285156 3.957031 36.066406 3.546875 35.808594 3.160156 C 35.546875 2.773438 35.253906 2.414062 34.921875 2.082031 C 34.59375 1.753906 34.234375 1.457031 33.847656 1.199219 C 33.457031 0.9375 33.046875 0.71875 32.617188 0.542969 C 32.1875 0.363281 31.742188 0.226562 31.28125 0.136719 C 30.824219 0.046875 30.363281 0 29.894531 0 C 29.429688 0 28.964844 0.046875 28.507812 0.136719 C 28.050781 0.226562 27.605469 0.363281 27.175781 0.542969 C 26.742188 0.71875 26.332031 0.9375 25.945312 1.199219 C 25.558594 1.457031 25.199219 1.753906 24.867188 2.082031 C 24.539062 2.414062 24.242188 2.769531 23.984375 3.160156 C 23.722656 3.546875 23.503906 3.957031 23.324219 4.390625 C 23.148438 4.820312 23.011719 5.265625 22.921875 5.722656 C 22.832031 6.179688 22.785156 6.644531 22.785156 7.109375 Z M 22.785156 33.34375 " fill-opacity="1" fill-rule="nonzero"/></g><path fill="#ffffff" d="M 11.015625 33.34375 C 11.484375 33.34375 11.945312 33.300781 12.402344 33.210938 C 12.863281 33.117188 13.304688 32.984375 13.738281 32.804688 C 14.167969 32.625 14.578125 32.40625 14.96875 32.148438 C 15.355469 31.886719 15.714844 31.59375 16.046875 31.261719 C 16.375 30.933594 16.671875 30.574219 16.929688 30.1875 C 17.1875 29.796875 17.40625 29.386719 17.585938 28.957031 C 17.765625 28.523438 17.898438 28.082031 17.992188 27.621094 C 18.082031 27.164062 18.128906 26.703125 18.128906 26.234375 C 18.128906 25.769531 18.082031 25.304688 17.992188 24.847656 C 17.898438 24.390625 17.765625 23.945312 17.585938 23.511719 C 17.40625 23.082031 17.1875 22.671875 16.929688 22.285156 C 16.667969 21.894531 16.375 21.535156 16.042969 21.207031 C 15.714844 20.875 15.355469 20.582031 14.96875 20.324219 C 14.578125 20.0625 14.167969 19.84375 13.738281 19.664062 C 13.304688 19.488281 12.863281 19.351562 12.402344 19.261719 C 11.945312 19.171875 11.484375 19.125 11.015625 19.125 C 10.550781 19.125 10.085938 19.171875 9.628906 19.261719 C 9.171875 19.351562 8.726562 19.488281 8.296875 19.664062 C 7.863281 19.84375 7.453125 20.0625 7.066406 20.324219 C 6.675781 20.582031 6.316406 20.875 5.988281 21.207031 C 5.65625 21.535156 5.363281 21.894531 5.101562 22.285156 C 4.84375 22.671875 4.625 23.082031 4.445312 23.511719 C 4.269531 23.945312 4.132812 24.390625 4.042969 24.847656 C 3.949219 25.304688 3.90625 25.769531 3.90625 26.234375 C 3.90625 26.703125 3.949219 27.164062 4.042969 27.621094 C 4.132812 28.082031 4.265625 28.523438 4.445312 28.957031 C 4.625 29.386719 4.84375 29.796875 5.101562 30.1875 C 5.363281 30.574219 5.65625 30.933594 5.988281 31.261719 C 6.316406 31.59375 6.675781 31.886719 7.066406 32.148438 C 7.453125 32.40625 7.863281 32.625 8.292969 32.804688 C 8.726562 32.984375 9.171875 33.117188 9.628906 33.210938 C 10.085938 33.300781 10.550781 33.34375 11.015625 33.34375 Z M 11.015625 33.34375 " fill-opacity="1" fill-rule="nonzero"/><path fill="#ffffff" d="M 27.75 33.34375 L 20.824219 33.34375 C 20.355469 33.34375 19.894531 33.300781 19.4375 33.210938 C 18.976562 33.117188 18.535156 32.984375 18.101562 32.804688 C 17.671875 32.625 17.261719 32.40625 16.871094 32.148438 C 16.484375 31.886719 16.125 31.59375 15.796875 31.261719 C 15.464844 30.933594 15.171875 30.574219 14.910156 30.183594 C 14.652344 29.796875 14.433594 29.386719 14.253906 28.957031 C 14.074219 28.523438 13.941406 28.078125 13.851562 27.621094 C 13.757812 27.164062 13.714844 26.703125 13.714844 26.234375 L 13.714844 16.917969 C 13.714844 16.453125 13.757812 15.988281 13.851562 15.53125 C 13.941406 15.074219 14.074219 14.628906 14.253906 14.195312 C 14.433594 13.765625 14.652344 13.355469 14.910156 12.96875 C 15.171875 12.578125 15.464844 12.21875 15.796875 11.890625 C 16.125 11.558594 16.484375 11.265625 16.871094 11.003906 C 17.261719 10.746094 17.671875 10.527344 18.101562 10.347656 C 18.535156 10.171875 18.976562 10.035156 19.4375 9.945312 C 19.894531 9.851562 20.355469 9.808594 20.824219 9.808594 C 21.289062 9.808594 21.753906 9.851562 22.210938 9.945312 C 22.667969 10.035156 23.113281 10.167969 23.542969 10.347656 C 23.976562 10.527344 24.386719 10.746094 24.773438 11.003906 C 25.164062 11.265625 25.523438 11.558594 25.851562 11.890625 C 26.183594 12.21875 26.476562 12.578125 26.738281 12.96875 C 26.996094 13.355469 27.214844 13.765625 27.394531 14.195312 C 27.570312 14.628906 27.707031 15.074219 27.796875 15.53125 C 27.890625 15.988281 27.933594 16.453125 27.933594 16.917969 L 27.933594 33.164062 C 27.933594 33.285156 27.875 33.34375 27.753906 33.34375 Z M 27.75 33.34375 " fill-opacity="1" fill-rule="nonzero"/><path fill="#8063c0" d="M 27.933594 33.164062 L 27.933594 16.917969 C 27.933594 13.746094 25.832031 10.960938 22.785156 10.085938 L 22.785156 33.34375 L 27.75 33.34375 C 27.875 33.347656 27.933594 33.285156 27.933594 33.164062 Z M 27.933594 33.164062 " fill-opacity="1" fill-rule="nonzero"/><path fill="#8063c0" d="M 18.128906 26.371094 C 18.128906 23.488281 16.382812 20.886719 13.714844 19.792969 L 13.714844 26.371094 C 13.714844 28.398438 14.5625 30.222656 15.921875 31.519531 C 16.625 30.847656 17.171875 30.066406 17.554688 29.171875 C 17.9375 28.277344 18.128906 27.34375 18.128906 26.371094 Z M 18.128906 26.371094 " fill-opacity="1" fill-rule="nonzero"/></svg>